<?xml version="1.0" standalone="no"?>
<!DOCTYPE svg PUBLIC "-//W3C//DTD SVG 20010904//EN"
 "http://www.w3.org/TR/2001/REC-SVG-20010904/DTD/svg10.dtd">
<svg version="1.0" xmlns="http://www.w3.org/2000/svg"
 width="512.000000pt" height="512.000000pt" viewBox="0 0 512.000000 512.000000"
 preserveAspectRatio="xMidYMid meet">
<metadata>
Created by potrace 1.14, written by Peter Selinger 2001-2017
</metadata>
<g transform="translate(0.000000,512.000000) scale(0.100000,-0.100000)"
fill="#000000" stroke="none">
<path d="M152 4690 c-98 -5 -105 -6 -128 -33 l-24 -28 0 -1674 c0 -1041 4
-1683 10 -1699 22 -58 -7 -56 905 -56 792 0 836 -1 831 -17 -3 -10 -8 -40 -11
-68 -3 -27 -12 -93 -20 -145 -13 -92 -18 -131 -30 -234 -3 -26 -10 -67 -14
-91 -4 -24 -8 -58 -7 -77 l1 -33 -170 0 -170 0 -1 -47 -1 -48 991 3 990 2 -1
28 c-3 69 15 63 -178 62 -96 -1 -170 2 -164 5 5 4 8 20 5 36 -5 34 -16 109
-21 144 -3 24 -13 88 -20 140 -2 14 -7 48 -10 75 -4 28 -8 61 -10 75 -2 14 -6
45 -10 70 -3 25 -8 62 -11 83 l-6 37 266 0 265 0 3 -303 c3 -263 5 -306 20
-333 26 -47 77 -95 125 -116 41 -18 78 -19 700 -19 396 1 671 5 692 11 44 12
80 36 114 74 60 67 57 6 57 1466 l0 1335 -24 50 c-53 112 -108 138 -307 140
-81 2 -151 5 -155 8 -5 3 -8 252 -8 554 1 585 1 585 -48 611 -18 10 -472 13
-2173 15 -1183 1 -2197 0 -2253 -3z"/>
</g>
</svg>
